# xmcd CD database file
#
# Track frame offsets:
#	150
#	13181
#	30862
#	46391
#	57538
#
# Disc length: 962 seconds
#
# Revision: 0
# Processed by: cddbd v1.5.1PL0 Copyright (c) Steve Scherf et al.
# Submitted via: CDex 1.51
#
DISCID=3803c005
DTITLE=tugboat country - tugboat country
DYEAR=2003
DGENRE=Country
TTITLE0=Walk Away
TTITLE1=Surf Song
TTITLE2=Fingerprints
TTITLE3=Move On
TTITLE4=Rex's Blues
EXTD=YEAR: 2003
EXTT0=
EXTT1=
EXTT2=
EXTT3=
EXTT4=
PLAYORDER=
